# xmcd
#
# Track frame offsets:
#	150
#	18815
#	36690
#	54767
#	68144
#	80837
#	105693
#	124323
#	141350
#	157499
#	172029
#	198664
#	220964
#	239769
#	265268
#	284756
#	297764
#	308576
#	331486
#	350002
#
# Disc length: 4806 seconds
#
# Revision: 0
# Processed by: cddbd v1.5.2PL0 Copyright (c) Steve Scherf et al.
# Submitted via: VUPlayer 2.48
#
DISCID=4e12c414
DTITLE=Various Artist - Carpenters/Costello/Beatles/Nits
DYEAR=1999
DGENRE=Pop
TTITLE0=Carpenters - We've Only Just Begun (w/'Close To You' intro)
TTITLE1=Carpenters - Goodbye To Love
TTITLE2=Carpenters - Yesterday Once More
TTITLE3=Carpenters - It's Going to Take Some Time
TTITLE4=Elvis Costello - Baby Plays Around
TTITLE5=Elvis Costello - God's Comic
TTITLE6=Elvis Costello - Stalin Malone
TTITLE7=Anita O'day - Fly Me To the Moon
TTITLE8=Bill Withers - Soul Shadows
TTITLE9=Nits - Solid to Gas
TTITLE10=Nits - King of Belgium
TTITLE11=Bono - Hallelujah
TTITLE12=Suzanne Vega - Story of Isaac
TTITLE13=Tori Amos - Famous Blue Raincoat
TTITLE14=Willie Nelson - Bird on a Wire
TTITLE15=The Beatles - Julia
TTITLE16=The Beatles - In My Life
TTITLE17=The Beatles - A Day in a Life
TTITLE18=The Beatles - Strawberry Fields Forever
TTITLE19=The Muppets - Manha Manha
EXTD=
EXTT0=
EXTT1=
EXTT2=
EXTT3=
EXTT4=
EXTT5=
EXTT6=
EXTT7=
EXTT8=
EXTT9=
EXTT10=
EXTT11=
EXTT12=
EXTT13=
EXTT14=
EXTT15=
EXTT16=
EXTT17=
EXTT18=
EXTT19=
PLAYORDER=
